PathFileType	4	(X/Y/Z)	OpenSim_Sub01_CSStiffKnee_Magnet.trc
DataRate	CameraRate	NumFrames	NumMarkers	Units	OrigDataRate	OrigDataStartFrame	OrigNumFrames
100	100	40	8	m	100	4036	5381
Frame#	Time	torso_imu_offset_imu	pelvis_imu_offset_imu	tibia_r_imu_offset_imu	femur_r_imu_offset_imu	tibia_l_imu_offset_imu	femur_l_imu_offset_imu	toes_r_imu_offset_imu	toes_l_imu_offset_imu
				X1	Y1	Z1	X2	Y2	Z2	X3	Y3	Z3	X4	Y4	Z4	X5	Y5	Z5	X6	Y6	Z6	X7	Y7	Z7	X8		Y8	Z8	

4036	40.35000000	-0.91973458	-0.11080922	0.10115487	-0.65293188	0.12563891	-0.66892389	-0.66415819	-0.42337594	-0.00045306	-0.76305640	-0.30428355	0.10400106	-0.40096077	0.68486198	0.21310121	-0.34503515	0.07494333	0.36908663	-0.70863710	-0.04373503	-0.40066560	-0.77136734	-0.16362055	-0.19658983
4037	40.36000000	-0.92117602	-0.10969541	0.10219509	-0.65524126	0.12113807	-0.66729895	-0.65659944	-0.43189268	0.00172274	-0.75849942	-0.31163053	0.11018588	-0.38976301	0.69604490	0.20518123	-0.34702858	0.07344454	0.36493215	-0.70914308	-0.04441062	-0.39885374	-0.77703730	-0.15930051	-0.17467744
4038	40.37000000	-0.92499779	-0.10877775	0.10237796	-0.65486974	0.11369875	-0.66481935	-0.65610378	-0.43783472	0.00472504	-0.75553852	-0.32250437	0.10870026	-0.37761233	0.70646717	0.19977967	-0.35108510	0.07212106	0.35841271	-0.70788172	-0.04608622	-0.39712523	-0.78025867	-0.15532731	-0.15181981
4039	40.38000000	-0.92875399	-0.10674236	0.10197730	-0.65415882	0.10564634	-0.66271614	-0.65727678	-0.44320324	0.00777719	-0.75306183	-0.33375390	0.10457949	-0.36507099	0.71574447	0.19515775	-0.35584268	0.07019172	0.35056915	-0.70691847	-0.04791977	-0.39430058	-0.78247809	-0.15241142	-0.13090360
4040	40.39000000	-0.92988706	-0.10240328	0.10141783	-0.65560042	0.09946730	-0.66217251	-0.65426841	-0.45017975	0.01000642	-0.74973405	-0.34217853	0.10349253	-0.35281442	0.72360264	0.18942199	-0.35985196	0.06677052	0.34265976	-0.70828717	-0.04896389	-0.38943230	-0.78522620	-0.15115826	-0.11493667
4041	40.40000000	-0.92878850	-0.09619602	0.10111082	-0.65857229	0.09535447	-0.66309134	-0.64796094	-0.45819052	0.01240993	-0.74536756	-0.34827413	0.10537059	-0.34189006	0.72986422	0.18317390	-0.36249088	0.06278921	0.33601155	-0.71130702	-0.04958307	-0.38376794	-0.78826337	-0.15067743	-0.10478548
4042	40.41000000	-0.92758550	-0.08951170	0.10145756	-0.66061998	0.09214792	-0.66462169	-0.64319629	-0.46504159	0.01707980	-0.74045206	-0.35471235	0.10676827	-0.33356452	0.73440787	0.17848159	-0.36362732	0.06024664	0.33198690	-0.71370024	-0.05091251	-0.37984219	-0.79030869	-0.14920155	-0.10005433
4043	40.42000000	-0.92756552	-0.08355317	0.10243414	-0.66031587	0.08874805	-0.66622192	-0.64231657	-0.46961212	0.02435906	-0.73553526	-0.36315201	0.10597585	-0.32903978	0.73691166	0.17629763	-0.36353643	0.06003468	0.33085385	-0.71413093	-0.05341420	-0.37856034	-0.79073144	-0.14612195	-0.10056261
4044	40.43000000	-0.92809235	-0.07907563	0.10306816	-0.65857635	0.08422891	-0.66806224	-0.64197197	-0.47322240	0.03065662	-0.73127469	-0.37292924	0.10525370	-0.32936736	0.73660459	0.17504326	-0.36338786	0.06054444	0.33043763	-0.71341071	-0.05602576	-0.37715482	-0.79038159	-0.14344063	-0.10664612
4045	40.44000000	-0.92834361	-0.07663418	0.10241109	-0.65655827	0.07785787	-0.67037159	-0.63846813	-0.47740324	0.03228509	-0.72822387	-0.38305682	0.10708370	-0.33536118	0.73285123	0.17298555	-0.36434650	0.06007700	0.32853858	-0.71260847	-0.05764688	-0.37272985	-0.79016919	-0.14327391	-0.11851641
4046	40.45000000	-0.92826240	-0.07534377	0.10108597	-0.65462685	0.07065514	-0.67299092	-0.63250482	-0.48244888	0.03005864	-0.72570926	-0.39245385	0.11068852	-0.34559245	0.72704335	0.17033558	-0.36627835	0.05949660	0.32611242	-0.71244901	-0.05891473	-0.36619655	-0.78955612	-0.14527192	-0.13438063
4047	40.46000000	-0.92824343	-0.07347379	0.10063950	-0.65268188	0.06466908	-0.67553239	-0.62736629	-0.48792494	0.02744159	-0.72233688	-0.39998766	0.11337329	-0.35731389	0.72176255	0.16844645	-0.36828544	0.06117071	0.32596741	-0.71345092	-0.06148713	-0.36070462	-0.78715353	-0.14763336	-0.15126892
4048	40.47000000	-0.92869262	-0.07014895	0.10189954	-0.65095095	0.06069887	-0.67763170	-0.62471604	-0.49357614	0.02676902	-0.71744159	-0.40526876	0.11351787	-0.36873314	0.71830843	0.16766022	-0.36995741	0.06557789	0.32903257	-0.71545590	-0.06611246	-0.35789344	-0.78232059	-0.14928356	-0.16734006
4049	40.48000000	-0.93002791	-0.06642688	0.10406352	-0.65040652	0.05672668	-0.67898361	-0.62252668	-0.49956785	0.02777996	-0.71200528	-0.40956747	0.11195542	-0.38022645	0.71508573	0.16603000	-0.37199392	0.06893885	0.33199043	-0.71680112	-0.07148037	-0.35596784	-0.77611011	-0.15081105	-0.18330519
4050	40.49000000	-0.93251531	-0.06349949	0.10616669	-0.65194980	0.05059950	-0.67939285	-0.61856243	-0.50603598	0.02988512	-0.70712958	-0.41429505	0.10978098	-0.39232854	0.71028544	0.16158168	-0.37516645	0.06734158	0.33136848	-0.71582384	-0.07614059	-0.35294415	-0.76976976	-0.15289577	-0.20005228
4051	40.50000000	-0.93483614	-0.06124565	0.10784835	-0.65470629	0.04270311	-0.67971691	-0.61359149	-0.51222459	0.03273187	-0.70285163	-0.41999957	0.10736632	-0.40418084	0.70393546	0.15525726	-0.37943788	0.06145127	0.32802533	-0.71296397	-0.08007417	-0.34968996	-0.76419315	-0.15483814	-0.21672965
4052	40.51000000	-0.93474492	-0.05877129	0.10910645	-0.65675787	0.03491572	-0.68142841	-0.61014721	-0.51685566	0.03610720	-0.69858211	-0.42671866	0.10465988	-0.41410879	0.69714588	0.14971300	-0.38429574	0.05462547	0.32536606	-0.70989899	-0.08410506	-0.34874634	-0.76006210	-0.15512965	-0.23146230
4053	40.52000000	-0.93171605	-0.05554983	0.11044426	-0.65701536	0.02799806	-0.68475953	-0.60928154	-0.51950232	0.03979449	-0.69404393	-0.43422733	0.10231453	-0.42170049	0.69072713	0.14632589	-0.38958408	0.04856343	0.32499165	-0.70772463	-0.08875922	-0.35084667	-0.75744499	-0.15330077	-0.24298705
4054	40.53000000	-0.92908799	-0.05189684	0.11348223	-0.65626930	0.02017449	-0.68715693	-0.60869026	-0.52165195	0.04356504	-0.68967485	-0.44172931	0.10256715	-0.42938496	0.68478989	0.14356911	-0.39595607	0.04118660	0.32440415	-0.70620285	-0.09387339	-0.35264268	-0.75504749	-0.15122343	-0.25143548
4055	40.54000000	-0.93021421	-0.04822441	0.11968923	-0.65546228	0.00969441	-0.68607849	-0.60588712	-0.52489873	0.04721814	-0.68593902	-0.44842199	0.10747727	-0.43965403	0.67928123	0.13973601	-0.40402367	0.03025814	0.32083000	-0.70495380	-0.09917371	-0.35069793	-0.75157092	-0.15082120	-0.25729450
4056	40.55000000	-0.93320513	-0.04476504	0.12740923	-0.65448096	-0.00139129	-0.68298904	-0.60119532	-0.52926570	0.05085907	-0.68257489	-0.45423535	0.11506063	-0.45167951	0.67343706	0.13531930	-0.41284294	0.01718416	0.31437547	-0.70399693	-0.10420704	-0.34636753	-0.74757513	-0.15127982	-0.26277154
4057	40.56000000	-0.93309314	-0.04164380	0.13315013	-0.65259199	-0.00880115	-0.68170800	-0.59659219	-0.53385054	0.05477089	-0.67889556	-0.45953097	0.12095584	-0.46268273	0.66607700	0.13210440	-0.42055605	0.00551198	0.30684326	-0.70358681	-0.10841650	-0.34382329	-0.74471211	-0.15017784	-0.27108104
4058	40.57000000	-0.92806879	-0.03868616	0.13498644	-0.64967820	-0.01079370	-0.68410914	-0.59337799	-0.53806273	0.05865851	-0.67480155	-0.46456240	0.12256100	-0.47158146	0.65671062	0.13086276	-0.42613590	-0.00286521	0.29953065	-0.70389391	-0.11165763	-0.34514367	-0.74373855	-0.14675128	-0.28375514
4059	40.58000000	-0.92345801	-0.03505214	0.13454111	-0.64701515	-0.01135916	-0.68765717	-0.59129461	-0.54203418	0.06093176	-0.67151624	-0.46932954	0.12126870	-0.48113502	0.64639887	0.13006618	-0.43043533	-0.00980666	0.29255819	-0.70489424	-0.11470932	-0.34765513	-0.74338196	-0.14398083	-0.29854329
4060	40.59000000	-0.92485034	-0.02998465	0.13384445	-0.64590531	-0.01474841	-0.68951426	-0.58984449	-0.54599196	0.06011507	-0.67022031	-0.47380287	0.11896295	-0.49424256	0.63627278	0.12809939	-0.43449684	-0.01745955	0.28590104	-0.70645671	-0.11838837	-0.34828164	-0.74212577	-0.14497949	-0.31292863
4061	40.60000000	-0.93058905	-0.02451191	0.13417543	-0.64598363	-0.01989672	-0.68987833	-0.58823467	-0.55013658	0.05772518	-0.66980559	-0.47800326	0.11702124	-0.50988100	0.62601946	0.12566081	-0.43869499	-0.02570149	0.27967721	-0.70761627	-0.12261366	-0.34643024	-0.73876842	-0.14899525	-0.32692871
4062	40.61000000	-0.93475490	-0.02070987	0.13636657	-0.64590459	-0.02261449	-0.69073286	-0.58550094	-0.55465119	0.05703482	-0.66781958	-0.48198171	0.11651833	-0.52472095	0.61447791	0.12480802	-0.44301217	-0.03307439	0.27408865	-0.70692233	-0.12677510	-0.34297364	-0.73229772	-0.15300150	-0.34205096
4063	40.62000000	-0.93400217	-0.01950698	0.14056365	-0.64499880	-0.02101319	-0.69294760	-0.58130477	-0.55936642	0.05936714	-0.66306664	-0.48588636	0.11770514	-0.53700862	0.60127535	0.12638757	-0.44783657	-0.03878164	0.26927393	-0.70428502	-0.13042276	-0.33898564	-0.72246027	-0.15511038	-0.35870286
4064	40.63000000	-0.93085018	-0.01924100	0.14539300	-0.64413377	-0.01842868	-0.69485580	-0.57670864	-0.56332682	0.06164458	-0.65719422	-0.49008119	0.11900300	-0.54857229	0.58782200	0.12850473	-0.45447307	-0.04354105	0.26522771	-0.70266459	-0.13347932	-0.33594631	-0.71069029	-0.15604060	-0.37479463
4065	40.64000000	-0.92840370	-0.01808676	0.14937380	-0.64427333	-0.01855339	-0.69469266	-0.57284446	-0.56566702	0.06060491	-0.65212205	-0.49489231	0.11875147	-0.56151357	0.57555748	0.12907951	-0.46404007	-0.04829443	0.26182419	-0.70501440	-0.13591269	-0.33516900	-0.69861361	-0.15683951	-0.38811369
4066	40.65000000	-0.92761890	-0.01615557	0.15204134	-0.64522842	-0.02146295	-0.69322427	-0.56960350	-0.56754998	0.05722624	-0.64860947	-0.49995345	0.11700130	-0.57575190	0.56373375	0.12794855	-0.47445023	-0.05418018	0.25789469	-0.70995648	-0.13763731	-0.33567798	-0.68747693	-0.15830648	-0.39866809
4067	40.66000000	-0.92818303	-0.01469850	0.15353040	-0.64613115	-0.02510132	-0.69270327	-0.56614675	-0.57132744	0.05497934	-0.64672900	-0.50449267	0.11481002	-0.58992076	0.55031796	0.12607804	-0.48173500	-0.06244726	0.25166268	-0.71356675	-0.13853685	-0.33515211	-0.67829889	-0.16109079	-0.40777601
4068	40.67000000	-0.92947926	-0.01441997	0.15399026	-0.64637927	-0.02781173	-0.69402135	-0.56196943	-0.57771476	0.05548243	-0.64606220	-0.50832654	0.11267179	-0.60293308	0.53447939	0.12420469	-0.48402793	-0.07318479	0.24290256	-0.71383741	-0.13866811	-0.33230256	-0.67116374	-0.16504077	-0.41679078
4069	40.68000000	-0.93024893	-0.01477181	0.15358527	-0.64598277	-0.02888988	-0.69499062	-0.55733352	-0.58374175	0.05614834	-0.64511497	-0.51259652	0.10979465	-0.61436233	0.51810663	0.12252061	-0.48420715	-0.08389080	0.23486685	-0.71310989	-0.13847499	-0.32818277	-0.66407749	-0.16822188	-0.42710641
4070	40.69000000	-0.92931405	-0.01507789	0.15257078	-0.64507422	-0.02785106	-0.69326703	-0.55265606	-0.58637726	0.05415243	-0.64239106	-0.51840830	0.10534154	-0.62395038	0.50327714	0.12114004	-0.48555141	-0.09208114	0.23085824	-0.71401953	-0.13841514	-0.32405543	-0.65503004	-0.16876431	-0.43984439
4071	40.70000000	-0.92722607	-0.01509062	0.15212079	-0.64419626	-0.02514748	-0.68919617	-0.54888358	-0.58710836	0.05009342	-0.63787418	-0.52464794	0.09980660	-0.63225483	0.49021909	0.12013387	-0.48884766	-0.09907484	0.22983916	-0.71616118	-0.13854709	-0.32007185	-0.64474837	-0.16795711	-0.45325590
4072	40.71000000	-0.92555367	-0.01481508	0.15394501	-0.64413196	-0.02178365	-0.68470921	-0.54726887	-0.59007729	0.04658353	-0.63242208	-0.52889955	0.09446755	-0.64031275	0.47807020	0.11954700	-0.49341159	-0.10842464	0.22822059	-0.71734160	-0.13869421	-0.31572905	-0.63556882	-0.16894347	-0.46390843
4073	40.72000000	-0.92523812	-0.01421177	0.15844405	-0.64534956	-0.01866948	-0.68150939	-0.54776332	-0.59725317	0.04497931	-0.62709418	-0.53032207	0.09025543	-0.64879278	0.46605198	0.11932678	-0.49827192	-0.12158880	0.22431348	-0.71654383	-0.13873792	-0.31080002	-0.62871612	-0.17289747	-0.47038327
4074	40.73000000	-0.92579144	-0.01313457	0.16308203	-0.64760793	-0.01648803	-0.68074557	-0.54740592	-0.60567973	0.04377760	-0.62337471	-0.53162593	0.08730504	-0.65752772	0.45360434	0.11920368	-0.50185956	-0.13528800	0.22074166	-0.71542705	-0.13869591	-0.30569235	-0.62288827	-0.17654618	-0.47580369
4075	40.74000000	-0.92652921	-0.01151661	0.16519403	-0.65048729	-0.01574381	-0.68321780	-0.54319775	-0.61206952	0.04126834	-0.62254018	-0.53567431	0.08561556	-0.66620405	0.44030207	0.11897237	-0.50275764	-0.14598654	0.22033562	-0.71578157	-0.13865787	-0.30083069	-0.61656182	-0.17645850	-0.48358376
